<svg xmlns="http://www.w3.org/2000/svg" viewBox="0 0 1024 1024"><rect width="1024" height="1024" fill="#fff"/><g fill="#C41E3A"><path transform="translate(738,231)" d="M0 0 C1.1 0.5 2.2 1.0 3.3 1.5 C29.8 14.0 49.8 37.3 59.8 64.7 C71.3 98.3 65.9 132.4 51 164 C41.1 183.9 27.2 201.7 13.8 219.2 C5.0 230.7 -2.9 242.6 -9.5 255.6 C-9.8 256.2 -10.2 256.8 -10.5 257.5 C-16.6 270.0 -17.4 285.6 -13.3 298.9 C-6.1 318.8 7.5 335.1 20.2 351.7 C26.5 359.9 32.4 368.3 38 377 C38.4 377.7 38.9 378.3 39.3 379.0 C59.5 410.3 71.6 445.6 64 483 C60.2 499.3 53.8 513.4 44 527 C43.5 527.8 42.9 528.5 42.4 529.3 C39.3 533.5 39.3 533.5 38 535 C37.3 535 36.7 535 36 535 C35.8 535.6 35.5 536.1 35.3 536.7 C25.8 553.4 0.7 564.2 -16.9 569.2 C-19.3 569.8 -21.6 570.4 -24 571 C-24.5 571.1 -24.5 571.1 -27.1 571.8 C-56.3 578.0 -87.0 569.8 -111.9 554.4 C-138.3 537.0 -153.7 509.8 -160.8 479.6 C-167.5 443.8 -154.8 407.5 -135 378 C-132.2 373.9 -129.2 369.8 -126.3 365.8 C-125.0 364.0 -123.8 362.2 -122.5 360.5 C-118.5 354.8 -114.4 349.2 -110.1 343.7 C-100.4 331.1 -91.5 318.6 -85 304 C-84.8 303.5 -84.8 303.5 -83.6 301.1 C-78.9 289.5 -78.7 272.6 -83.5 261.0 C-84.0 260.0 -84.5 259.0 -85 258 C-85.3 257.4 -85.6 256.7 -86.0 256.0 C-93.8 240.7 -103.8 227.0 -114.4 213.4 C-142.2 177.4 -167.0 137.2 -161.7 89.7 C-161.1 85.1 -160.1 80.5 -159 76 C-158.8 75.0 -158.5 74.0 -158.3 73.0 C-153.6 53.9 -142.3 37.1 -129 23 C-128.4 22.3 -127.7 21.6 -127.1 20.9 C-114.1 7.0 -95.9 -1.3 -78 -7 C-77.3 -7.2 -76.5 -7.5 -75.8 -7.7 C-52.1 -14.4 -21.7 -10.7 0 0 Z "/><path transform="translate(345,221)" d="M0 0 C1.0 0.0 2.0 0.0 3.1 0.0 C25.0 1.0 46.5 12.2 63 26 C63.7 26.6 64.5 27.2 65.3 27.8 C86.0 45.2 99.8 72.3 103 99 C103.3 103.9 103.4 108.7 103.4 113.6 C103.4 114.9 103.4 116.3 103.4 117.6 C103.2 127.9 102.0 137.1 99 147 C98.8 147.6 98.8 147.6 98.1 150.4 C92.3 171.3 80.3 189.7 67.6 206.9 C65.3 210.0 63.0 213.2 60.8 216.3 C57.6 220.8 54.3 225.2 50.9 229.6 C34.6 250.6 18.8 273.2 22 301 C26.5 322.9 42.3 341.5 55.4 358.9 C64.8 371.3 73.9 383.8 81.9 397.1 C83.0 398.9 84.1 400.7 85.2 402.5 C92.8 415.1 97.5 428.8 101 443 C101.2 443.7 101.4 444.4 101.5 445.1 C103.2 452.5 103.4 459.8 103.4 467.4 C103.4 468.0 103.4 468.7 103.4 469.4 C103.3 501.1 91.7 526.9 70 550 C69.5 550.6 68.9 551.2 68.4 551.8 C55.9 565.2 38.3 574.0 21 579 C19.9 579.4 18.7 579.7 17.6 580.1 C-10.8 587.1 -41.9 583.4 -67.2 568.7 C-92.8 552.7 -111.5 530.7 -120.4 501.6 C-120.7 500.8 -120.9 500.0 -121.2 499.2 C-124.0 489.3 -124.2 479.4 -124.2 469.1 C-124.2 468.0 -124.2 466.9 -124.2 465.8 C-124.2 458.3 -123.5 451.3 -122 444 C-121.8 442.9 -121.6 441.7 -121.4 440.5 C-115.5 413.7 -100.4 390.7 -84 369 C-77.0 359.8 -70.2 350.5 -63.5 341.1 C-62.2 339.3 -60.9 337.5 -59.7 335.8 C-48.4 319.7 -40.6 301.6 -43.7 281.8 C-47.4 263.4 -57.9 248.6 -69 234 C-70.5 232.0 -72.0 230.0 -73.5 228 C-74.2 227.0 -75.0 226.1 -75.7 225.1 C-76.5 224.1 -77.2 223.0 -78 222 C-78.4 221.4 -78.8 220.9 -79.3 220.3 C-103.5 187.9 -124.2 154.7 -124.3 113.1 C-124.3 112.0 -124.3 110.9 -124.3 109.7 C-124.1 78.3 -110.1 50.8 -88 29 C-84.8 26.1 -81.5 23.5 -78 21 C-77.1 20.3 -76.1 19.6 -75.2 18.9 C-51.8 2.7 -27.6 -0.4 0 0 Z "/><path transform="translate(521,405)" d="M0 0 C0.5 0.0 0.5 0.0 3.0 0.1 C26.2 1.3 52.0 14.4 68 31 C73.6 37.3 78.5 43.9 83 51 C83.5 51.7 84.0 52.5 84.5 53.2 C98.5 74.9 102.2 104.1 97 129 C90.0 158.8 73.5 183.0 47.5 199.3 C37.0 205.7 26.0 210.2 14 213 C13.5 213.1 13.5 213.1 11.2 213.7 C-5.5 217.2 -22.7 215.4 -39 211 C-40.1 210.7 -41.2 210.4 -42.3 210.1 C-55.6 206.2 -67.3 198.7 -78 190 C-78.9 189.3 -79.7 188.6 -80.6 187.9 C-100.1 171.4 -113.0 146.6 -115.8 121.2 C-118.3 89.9 -111.1 61.8 -90.8 37.4 C-72.9 17.0 -48.4 2.0 -20.8 0.1 C-13.9 -0.1 -6.9 -0.1 0 0 Z "/></g></svg>